<?xml version="1.0" encoding="UTF-8"?>
<svg id="Layer_2" data-name="Layer 2" xmlns="http://www.w3.org/2000/svg" viewBox="0 0 50.78 50.78">
  <defs>
    <style>
      .cls-1 {
        fill: #e9ba37;
      }
    </style>
  </defs>
  <g id="Layer_1-2" data-name="Layer 1">
    <g>
      <path class="cls-1" d="M42.59,26.21c1.48,0,2.97,0,4.45,0,.34,0,.48-.06.47-.44-.02-1.36-.02-2.73,0-4.09,0-.31-.08-.4-.4-.4-3.02.01-6.04.01-9.06,0-.33,0-.39.11-.39.41.01,1.36.02,2.73,0,4.09,0,.33.09.43.42.43,1.5-.02,3,0,4.5,0M31.11,26.21c1.5,0,3,0,4.5,0,.27,0,.44,0,.43-.37-.02-1.4-.02-2.8,0-4.2,0-.3-.1-.37-.38-.37-3.02,0-6.04,0-9.06,0-.3,0-.41.07-.41.39.02,1.38.02,2.76,0,4.14,0,.33.11.39.41.39,1.5-.01,3,0,4.5,0M19.66,26.21c1.48,0,2.97,0,4.45,0,.34,0,.47-.06.47-.44-.02-1.35-.02-2.7,0-4.04,0-.36-.1-.45-.46-.45-2.98.01-5.97.01-8.95,0-.31,0-.45.06-.44.41.02,1.36.02,2.73,0,4.09,0,.34.1.43.43.43,1.5-.02,3,0,4.5,0M8.18,26.21c1.5,0,3,0,4.5,0,.28,0,.43-.02.43-.37-.02-1.4-.02-2.8,0-4.2,0-.31-.12-.36-.39-.36-3.02,0-6.04.01-9.06,0-.32,0-.4.09-.4.4.02,1.36.02,2.73,0,4.09,0,.38.13.44.47.44,1.48-.02,2.97,0,4.45,0M25.44,18.02H4.3c-1.03,0-1,0-1.04,1.04-.02.48.1.62.6.62,14.19-.02,28.39-.01,42.58-.01,1.06,0,1.03,0,1.07-1.06.01-.45-.09-.59-.58-.59-7.17.02-14.33.01-21.5.01M25.36,3.28h21.14c1,0,.97,0,1.02-1.01.02-.51-.11-.64-.63-.64-14.18.02-28.35.01-42.53.01-1.08,0-1.06,0-1.09,1.09-.01.44.09.56.55.56,7.18-.02,14.37-.01,21.55-.01M24.57,40.13c0-1.76-.01-3.51.01-5.27,0-.4-.12-.48-.49-.47-1.88.02-3.75.02-5.63,0-.35,0-.46.08-.46.45.01,3.53.01,7.06,0,10.59,0,.37.11.45.46.45,1.88-.02,3.75-.02,5.63,0,.38,0,.49-.08.48-.48-.02-1.76-.01-3.51-.01-5.27M9.83,40.08c0,1.77.01,3.55-.01,5.32,0,.39.11.48.49.48,1.88-.02,3.75-.02,5.63,0,.35,0,.46-.08.46-.45-.02-3.53-.01-7.06,0-10.59,0-.37-.11-.45-.46-.45-1.88.02-3.75.02-5.63,0-.37,0-.49.08-.49.47.02,1.74.01,3.48.01,5.22M25.34,49.14h22.83c.98,0,.95,0,.99-.99.02-.52-.11-.67-.66-.67-15.27.02-30.54.01-45.81.01-1.06,0-1.03,0-1.07,1.06-.01.46.1.59.58.59,7.71-.02,15.42-.01,23.13-.01M17.21,31.12c-3.36,0-6.72,0-10.08-.01-.45,0-.6.09-.59.57.02,4.37.01,8.74.01,13.1,0,1.08,0,1.06,1.09,1.09.44.01.57-.09.57-.55-.02-3.84-.01-7.68-.01-11.51,0-.79.26-1.05,1.03-1.05,5.31,0,10.61,0,15.92,0,.81,0,1.06.25,1.06,1.07,0,3.63,0,7.27,0,10.9,0,1.14,0,1.12,1.14,1.14.39,0,.52-.08.52-.5-.02-4.59-.02-9.18,0-13.77,0-.41-.12-.5-.51-.5-3.38.02-6.76,0-10.13,0M34.39,38.45c0,2.3,0,4.61,0,6.91,0,.38.06.53.49.52,2.97-.02,5.94-.02,8.9,0,.36,0,.46-.09.45-.45-.01-4.62-.01-9.25,0-13.87,0-.37-.12-.44-.46-.44-2.97.01-5.94.01-8.9,0-.38,0-.48.09-.48.48.02,2.29,0,4.57,0,6.86M25.39,27.84c-7.2,0-14.4,0-21.6,0-.42,0-.53.1-.53.53.02,5.48.01,10.95.01,16.43,0,1.07,0,1.05,1.1,1.08.46.01.56-.12.55-.56-.02-4.9-.01-9.79-.01-14.69,0-.92.22-1.14,1.15-1.14h22.26c.94,0,1.16.22,1.16,1.18,0,4.86.01,9.72-.01,14.59,0,.54.16.65.65.62.7-.04,1.4-.04,2.1,0,.46.03.56-.11.56-.56-.02-4.91-.01-9.83-.01-14.74,0-.85.24-1.09,1.09-1.09h10.9c.87,0,1.11.24,1.11,1.13,0,4.73,0,9.45,0,14.18,0,1.08,0,1.05,1.09,1.09.46.01.56-.11.56-.56-.02-5.63-.02-11.26,0-16.89,0-.52-.16-.6-.63-.6-7.16.02-14.33.01-21.5.01M25.34,16.38c7.74,0,15.49,0,23.24.01.48,0,.58-.13.58-.59-.02-3.46-.02-6.93,0-10.39,0-.39-.09-.51-.5-.51-15.51.01-31.02.01-46.52,0-.41,0-.5.12-.5.51.02,3.46.02,6.93,0,10.39,0,.45.1.59.58.59,7.71-.02,15.42-.01,23.14-.01M25.35,50.78H1.14C.22,50.78,0,50.55,0,49.63c0-.92,0-1.84,0-2.76,0-.72.28-1.03.98-.99.52.03.67-.1.67-.65-.02-8.87-.02-17.74,0-26.62,0-.5-.13-.63-.62-.61C.26,18.04,0,17.75,0,16.97,0,12.77,0,8.57,0,4.38,0,3.52.24,3.26,1.08,3.29c.44.02.6-.08.57-.55-.05-.61-.02-1.23-.01-1.84C1.65.31,1.94.02,2.52,0c.12,0,.24,0,.36,0h45.04c1.02,0,1.22.2,1.22,1.22,0,.56.01,1.13,0,1.69-.01.29.09.4.38.37.1-.01.2,0,.31,0,.67,0,.96.29.96.97,0,2.13,0,4.26,0,6.4s0,4.2,0,6.3c0,.82-.25,1.1-1.06,1.07-.45-.02-.59.09-.59.57.02,8.91.02,17.81,0,26.72,0,.48.14.6.59.58.81-.03,1.06.24,1.06,1.06,0,.9,0,1.81,0,2.71,0,.89-.23,1.12-1.11,1.12h-24.31Z"/>
      <path class="cls-1" d="M13.62,11.46c-1.39,0-1.38,0-1.34,1.29,0,.26.07.36.34.35.68-.02,1.36,0,2.05-.01.52-.01.88-.36.89-.8,0-.46-.37-.81-.92-.83-.34-.01-.68,0-1.02,0M13.6,9.83c.36,0,.72.01,1.07,0,.52-.02.88-.36.88-.81,0-.45-.36-.81-.87-.82-.7-.02-1.4,0-2.1,0-.2,0-.29.05-.31.28-.12,1.37-.13,1.36,1.22,1.36.03,0,.07,0,.1,0M10.65,10.65c0-1.04,0-2.08,0-3.12,0-.68.28-.97.96-.97,1.04,0,2.08,0,3.12,0,.97,0,1.71.44,2.17,1.29.46.83.42,1.68-.08,2.47-.16.26-.16.41,0,.67.5.8.54,1.64.08,2.47-.46.84-1.2,1.28-2.17,1.29-1.04,0-2.08,0-3.12,0-.67,0-.95-.29-.96-.97,0-1.04,0-2.08,0-3.12"/>
      <path class="cls-1" d="M28.66,10.01c0,1.43-.01,2.86,0,4.28,0,.36-.1.45-.46.45-1.19,0-1.19,0-1.19-1.19,0-1.99,0-3.99,0-5.98,0-.45.1-.83.56-.98.45-.15.77.07,1.04.43,1.06,1.43,2.14,2.86,3.32,4.28v-.88c0-1.14.02-2.28,0-3.43,0-.37.11-.45.46-.45,1.18,0,1.18,0,1.18,1.19,0,1.99,0,3.99,0,5.98,0,.45-.11.83-.56.98-.45.15-.78-.07-1.04-.44-1.07-1.43-2.14-2.86-3.21-4.29-.03.01-.07.03-.1.04"/>
      <path class="cls-1" d="M22.1,10.65c.44,0,.89,0,1.33,0,.12,0,.26.05.32-.15.27-.86-.3-1.95-1.18-2.22-.66-.2-1.21,0-1.67.47-.48.5-.47,1.14-.42,1.78.01.17.18.12.29.12.44,0,.88,0,1.33,0M25.39,11.99c0,.8,0,1.6,0,2.4,0,.26-.07.34-.34.35-1.3.05-1.3.05-1.3-1.24s0-1.23-1.24-1.23c-.54,0-1.09.02-1.64,0-.31-.01-.42.07-.41.4.03.56,0,1.12.01,1.69,0,.27-.05.38-.36.39-1.28.03-1.28.04-1.28-1.25,0-1.23,0-2.45,0-3.68.01-1.83,1.46-3.26,3.29-3.26,1.8,0,3.24,1.43,3.26,3.24,0,.73,0,1.47,0,2.2"/>
      <path class="cls-1" d="M36.85,12.01c0,.85-.01,1.6,0,2.35,0,.27-.05.38-.36.39-1.28.03-1.28.04-1.28-1.25,0-2.17,0-4.33,0-6.5,0-.36.09-.46.45-.46,1.19.01,1.19,0,1.19,1.19v1.55c.94-.55,1.45-1.29,1.57-2.27.05-.39.2-.53.57-.47.03,0,.07,0,.1,0,1.19,0,1.2,0,.89,1.18-.28,1.05-.83,1.95-1.72,2.59-.35.25-.41.36-.02.65,1.1.81,1.68,1.94,1.86,3.28.05.35-.01.55-.44.5-.35-.04-.76.09-1.06-.05-.31-.14-.17-.6-.29-.91-.27-.75-.7-1.34-1.48-1.78"/>
      <path class="cls-1" d="M39.18,37.67c.55,0,1.01,0,1.47,0,.21,0,.31-.05.31-.28-.01-.9-.01-1.81,0-2.71,0-.22-.08-.29-.3-.29-.89,0-1.77.01-2.66,0-.29,0-.34.12-.33.36.02.44,0,.89,0,1.33,0,.51-.17,1.19.08,1.48.3.34.99.06,1.42.11M42.58,36.04c0,.78,0,1.57,0,2.35,0,.62-.3.92-.9.92-1.58,0-3.17,0-4.75,0-.58,0-.89-.3-.89-.87,0-1.6,0-3.2,0-4.8,0-.57.31-.87.9-.87,1.58,0,3.17,0,4.75,0,.6,0,.89.31.9.92,0,.78,0,1.57,0,2.35"/>
    </g>
  </g>
</svg>