<?xml version="1.0" encoding="UTF-8"?>
<svg id="Layer_2" xmlns="http://www.w3.org/2000/svg" version="1.1" viewBox="0 0 134.4 27">
  <!-- Generator: Adobe Illustrator 30.2.1, SVG Export Plug-In . SVG Version: 2.1.1 Build 1)  -->
  <defs>
    <style>
      .st0 {
        fill: #0433ac;
      }
    </style>
  </defs>
  <g id="Layer_1-2">
    <g>
      <path class="st0" d="M8,13.4c0,1.1.8,2,1.9,2.1h.1c1,0,1.9-.8,2-1.9,0-1.1-.8-2-1.9-2.1-1.1,0-2,.8-2.1,1.9"/>
      <path class="st0" d="M.7,12.9c-.3,0-.6.2-.7.6,0,.4.2.6.6.7s.6-.2.7-.6-.2-.6-.6-.7"/>
      <path class="st0" d="M7.9,2c.3-.2.4-.5.3-.9-.2-.3-.5-.4-.9-.3-.3.2-.4.5-.3.9s.5.4.9.3"/>
      <path class="st0" d="M9.9,5.5c.5-.2.7-.8.4-1.3-.2-.5-.8-.7-1.3-.4-.5.2-.7.8-.4,1.3.2.5.8.7,1.3.4"/>
      <path class="st0" d="M3.2,7.9c.4.3.9.1,1.1-.2.2-.4.1-.9-.2-1.1-.4-.2-.9-.1-1.1.2-.2.4-.1.9.2,1.1"/>
      <path class="st0" d="M4.4,12.6c-.5,0-1,.4-1,.9,0,.5.4,1,.9,1,.5,0,1-.4,1-.9,0-.5-.4-1-.9-1"/>
      <path class="st0" d="M3.3,19.2c-.4.2-.6.7-.4,1.1.2.4.7.6,1.1.4.4-.2.6-.7.4-1.1s-.7-.6-1.1-.4"/>
      <path class="st0" d="M7.1,10.5c.5.4,1.2.2,1.6-.3s.2-1.2-.3-1.6-1.2-.2-1.6.3-.2,1.2.3,1.6"/>
      <path class="st0" d="M19.2,5.4c.5.3,1.1.2,1.4-.3.3-.4.2-1.1-.3-1.4-.5-.3-1.1-.2-1.4.3-.3.4-.2,1.1.3,1.4"/>
      <path class="st0" d="M21.2,1.9c.3.2.7.1.9-.2s.1-.7-.2-.9c-.3-.2-.7-.1-.9.2-.2.3-.1.7.2.9"/>
      <path class="st0" d="M19.4,11.5c-1.1,0-2,.8-2.1,1.9,0,1.1.8,2,1.9,2.1h.1c1,0,1.9-.8,2-1.9,0-.5-.1-1-.5-1.4s-.8-.6-1.4-.7"/>
      <path class="st0" d="M10.5,10.4c.3.7,1,1.1,1.8,1.1s.6,0,.9-.2c1-.5,1.4-1.7.9-2.6-.3-.7-1-1.1-1.8-1.1s-.6,0-.9.2c-1,.5-1.4,1.7-.9,2.6"/>
      <path class="st0" d="M26,7.9c.4-.2.6-.7.4-1.1-.2-.4-.7-.6-1.1-.4s-.6.7-.4,1.1c.2.4.7.6,1.1.4"/>
      <path class="st0" d="M21,8.5c-.6.3-.8,1-.5,1.6.3.6,1,.8,1.5.5s.8-1,.5-1.6c-.3-.6-1-.8-1.5-.5"/>
      <path class="st0" d="M14.5,1.6c.4,0,.8-.3.9-.8C15.4.4,15.1,0,14.6,0c-.4,0-.8.3-.9.8,0,.5.3.8.8.9"/>
      <path class="st0" d="M14.5,6.7c.6,0,1.2-.4,1.2-1.1,0-.6-.4-1.2-1.1-1.2s-1.2.4-1.2,1.1c0,.6.4,1.2,1.1,1.2"/>
      <path class="st0" d="M8.3,18.5c.6-.3.8-1,.5-1.5s-1-.8-1.6-.5c-.6.3-.8,1-.5,1.5s1,.8,1.6.5"/>
      <path class="st0" d="M15.3,8.4c-.6.9-.3,2.1.6,2.7.3.2.7.3,1.1.3.7,0,1.3-.3,1.6-.9.6-.9.3-2.1-.6-2.7-.3-.2-.7-.3-1.1-.3-.7,0-1.3.3-1.6.9"/>
      <path class="st0" d="M18.7,16.6c-.3-.7-1-1.1-1.8-1.1s-.6,0-.9.2c-.5.2-.8.6-1,1.1s-.1,1,.1,1.5c.3.7,1,1.1,1.8,1.1s.6,0,.9-.2c1-.5,1.4-1.7.9-2.6"/>
      <path class="st0" d="M22.1,16.5c-.5-.4-1.2-.2-1.6.3-.4.5-.2,1.2.3,1.6.5.4,1.2.2,1.6-.3s.2-1.2-.3-1.6"/>
      <path class="st0" d="M25.9,13.5c0-.5-.4-1-.9-1-.5,0-1,.4-1,.9,0,.5.4,1,.9,1,.5,0,1-.4,1-.9"/>
      <path class="st0" d="M28.6,12.8c-.4,0-.6.2-.7.6s.2.6.6.7.6-.2.7-.6-.2-.6-.6-.7"/>
      <path class="st0" d="M26.1,19.2c-.4-.2-.9-.1-1.1.2s-.1.9.2,1.1c.4.2.9.1,1.1-.2.2-.4.1-.9-.2-1.1"/>
      <path class="st0" d="M8,25.1c-.3-.2-.7-.1-.9.2s-.1.7.2.9c.3.2.7.1.9-.2s.1-.7-.2-.9"/>
      <path class="st0" d="M21.4,25c-.3.2-.4.5-.3.9.2.3.5.4.9.3s.4-.5.3-.9-.5-.4-.9-.3"/>
      <path class="st0" d="M13.9,18.6c.3-.4.4-1,.3-1.5-.1-.5-.4-1-.9-1.2-.3-.2-.7-.3-1.1-.3-.7,0-1.3.3-1.6.9-.3.4-.4,1-.3,1.5.1.5.4,1,.9,1.2.3.2.7.3,1.1.3.7,0,1.3-.3,1.6-.9"/>
      <path class="st0" d="M10,21.6c-.4-.3-1.1-.2-1.4.3s-.2,1.1.3,1.4c.4.3,1.1.2,1.4-.3.3-.5.2-1.1-.3-1.4"/>
      <path class="st0" d="M14.6,25.4c-.4,0-.8.3-.9.8,0,.5.3.8.8.9.4,0,.8-.3.9-.8,0-.5-.3-.8-.8-.9"/>
      <path class="st0" d="M14.6,20.3c-.6,0-1.2.5-1.2,1.1,0,.6.4,1.2,1.1,1.2.6,0,1.2-.5,1.2-1.1s-.4-1.2-1.1-1.2"/>
      <path class="st0" d="M19.4,21.5c-.5.2-.7.8-.4,1.3.2.5.8.7,1.3.4s.7-.8.4-1.3c-.2-.5-.8-.7-1.3-.4"/>
      <path class="st0" d="M41.1,8.9c1.9,0,3.2,1.1,3.2,3h2.5c0-3.4-2.5-5.1-5.8-5.1s-6.3,2.2-6.3,6.8,2.3,6.8,6.3,6.8,5.8-1.6,5.8-5h-2.4c0,1.9-1.3,3-3.3,3s-3.9-1.5-3.9-4.5v-.4c0-3,1.2-4.5,3.9-4.5"/>
      <path class="st0" d="M52.7,15.2l1.3-3.6c.3-.7.7-2.2.8-2.5h0c0,.3.6,1.8.8,2.5l1.3,3.6h-4.4ZM53.4,7l-5.1,13.1h2.5l1-2.8h6l1.1,2.8h2.6l-5.1-13.1s-3.1,0-3.1,0Z"/>
      <path class="st0" d="M70.7,13h-4.3v-3.9h4.3c1.3,0,2,.7,2,1.9s-.7,2-2,2M75.2,11c0-2.4-1.4-4-4.3-4h-6.9v13.1h2.4v-5.1h4.1l2.5,5.1h2.7l-2.8-5.4c1.5-.6,2.3-1.9,2.3-3.7"/>
      <path class="st0" d="M87.6,13.8c0,2.9-1.4,4.3-3.8,4.3h-2.8v-8.9h2.8c2.5,0,3.8,1.4,3.8,4.3,0,0,0,.4,0,.4ZM83.7,7h-5.2v13.1h5.2c3.9,0,6.3-2.1,6.3-6.5s-2.4-6.5-6.3-6.5"/>
      <path class="st0" d="M95.7,15.2l1.3-3.6c.3-.7.7-2.2.8-2.5h0c0,.3.6,1.8.8,2.5l1.3,3.6s-4.4,0-4.4,0ZM96.5,7l-5.1,13.1h2.5l1.1-2.8h6l1.1,2.8h2.6l-5.1-13.1s-3.1,0-3.1,0Z"/>
      <path class="st0" d="M115.8,14.8c0,.2,0,.9,0,1h0c0,0-.4-.7-.7-1l-5.7-7.8h-2.3v13.1h2.3v-7.8c0-.3,0-.9,0-1.1h0c0,0,.3.6.7,1l5.7,7.9h2.3V7h-2.3v7.8h0Z"/>
      <path class="st0" d="M131.9,13.8c0,3-1.4,4.5-4.1,4.5s-4.1-1.5-4.1-4.5v-.4c0-3,1.4-4.5,4.1-4.5s4.1,1.5,4.1,4.5v.4ZM127.8,6.8c-4.1,0-6.6,2.2-6.6,6.8s2.5,6.8,6.6,6.8,6.6-2.2,6.6-6.8-2.5-6.8-6.6-6.8"/>
    </g>
  </g>
</svg>