<?xml version="1.0" encoding="UTF-8"?>
<svg id="Layer_2" data-name="Layer 2" xmlns="http://www.w3.org/2000/svg" viewBox="0 0 45.64 45.63">
  <defs>
    <style>
      .cls-1 {
        fill: #e9ba37;
      }
    </style>
  </defs>
  <g id="Layer_1-2" data-name="Layer 1">
    <g>
      <path class="cls-1" d="M38.11,11.68c.02-.09.04-.13.04-.17,0-2.05,0-4.1,0-6.14,0-.25-.09-.29-.31-.29-.91.01-1.81.02-2.72,0-.29,0-.38.09-.37.38.02.99.04,1.99,0,2.98-.02.49.14.78.53,1.06.95.7,1.87,1.44,2.82,2.19M22.85,5.71c.25,0,.47.15.68.32,3.26,2.55,6.53,5.1,9.79,7.64,2.61,2.04,5.22,4.07,7.82,6.12.23.18.37.2.58-.03.44-.48.91-.94,1.38-1.39.23-.22.23-.33-.03-.53-6.64-5.17-13.27-10.35-19.9-15.54-.27-.21-.42-.23-.7,0-4.53,3.55-9.07,7.09-13.61,10.64-2.1,1.63-4.18,3.28-6.29,4.9-.28.22-.28.33-.03.56.44.4.87.81,1.26,1.26.29.34.49.31.82.05,5.82-4.56,11.65-9.11,17.47-13.65.21-.17.43-.32.75-.33M45.64,18.27c-.3.5-.76.87-1.16,1.28-.67.68-1.34,1.35-2.01,2.02-.63.63-.82.67-1.64.32v.67c0,2.05,0,4.1,0,6.15,0,.67-.32,1.05-.88,1.06-.57,0-.9-.38-.9-1.07,0-2.63,0-5.26,0-7.89,0-.26-.05-.44-.27-.6-5.22-4.07-10.44-8.14-15.65-12.22-.23-.18-.37-.18-.6,0-5.21,4.08-10.43,8.15-15.65,12.22-.19.15-.27.31-.27.56,0,7.56,0,15.12,0,22.67,0,.33.08.44.42.42.53-.03,1.07-.04,1.6,0,.44.04.5-.14.5-.52-.01-2.6,0-5.2-.01-7.8,0-.4.15-.69.5-.87.32-.16.64-.13.92.08.29.21.36.51.36.86,0,2.58,0,5.17-.01,7.75,0,.38.08.49.48.49,9.07-.01,18.15-.01,27.22,0,.4,0,.48-.11.48-.49-.02-2.58-.01-5.17,0-7.75,0-.5.29-.86.72-.94.43-.08.84.15,1,.56.07.17.05.35.05.53,0,2.48,0,4.96,0,7.44q0,.64.67.64c.99,0,1.99.02,2.98,0,.54-.02.92.15,1.16.63v.53c-.22.41-.53.63-1.03.63-14.52,0-29.04,0-43.56,0-.65,0-1.04-.34-1.03-.9,0-.55.39-.88,1.05-.88,1.08,0,2.17-.02,3.25,0,.39,0,.52-.08.52-.5-.01-7.01,0-14.02-.01-21.02,0-.14.04-.29-.05-.45-.42.27-.88.37-1.26,0-1.09-1.07-2.18-2.15-3.24-3.24-.4-.41-.34-.95.09-1.33.13-.12.28-.22.42-.33C6.43,12.55,12.08,8.13,17.73,3.73c1.6-1.25,3.22-2.48,4.82-3.73h.53c.15.1.3.19.44.3,2.29,1.79,4.58,3.58,6.88,5.37.84.65,1.67,1.3,2.58,2.01,0-1.16,0-2.23,0-3.29,0-.77.31-1.09,1.07-1.09,1.6,0,3.21,0,4.81,0,.76,0,1.07.31,1.07,1.09,0,2.75,0,5.49,0,8.24,0,.34.1.57.37.78,1.57,1.2,3.11,2.42,4.67,3.63.26.2.5.41.67.7v.53Z"/>
      <path class="cls-1" d="M23.72,33.15c0,.99,0,1.99,0,2.98,0,.29.04.42.38.41,2.02-.02,4.04-.01,6.06,0,.27,0,.36-.06.35-.34-.01-2.03-.01-4.07,0-6.1,0-.28-.09-.34-.35-.34-2.02.01-4.04.01-6.06,0-.28,0-.38.06-.38.37.02,1.01,0,2.02,0,3.03M21.94,33.18c0-1.02,0-2.05,0-3.07,0-.21,0-.36-.29-.36-2.06.01-4.13,0-6.19,0-.24,0-.3.08-.3.31,0,2.05,0,4.1,0,6.15,0,.24.06.33.32.33,2.05-.01,4.1-.01,6.15,0,.26,0,.32-.08.32-.33-.01-1.01,0-2.02,0-3.03M23.72,24.61c0,1.01,0,2.02,0,3.03,0,.26.06.36.34.36,2.03-.01,4.07-.01,6.1,0,.28,0,.34-.09.34-.35,0-2.02-.01-4.04,0-6.06,0-.28-.06-.38-.36-.38-2.02.01-4.04.01-6.06,0-.3,0-.37.09-.37.38.01,1.01,0,2.02,0,3.03M21.94,24.64c0-1.01,0-2.02,0-3.03,0-.29-.04-.42-.38-.41-2.02.02-4.04.01-6.06,0-.26,0-.36.06-.35.34.01,2.03.01,4.07,0,6.1,0,.28.09.34.35.34,2.02-.01,4.04-.01,6.06,0,.28,0,.38-.06.38-.37-.02-.99,0-1.99,0-2.98M22.8,38.32c-2.78,0-5.55,0-8.33,0-.79,0-1.09-.3-1.09-1.11,0-5.57,0-11.13,0-16.7,0-.77.31-1.08,1.07-1.08,5.58,0,11.16,0,16.75,0,.76,0,1.07.31,1.07,1.08,0,5.57,0,11.13,0,16.7,0,.8-.3,1.1-1.1,1.1-2.79,0-5.58,0-8.37,0"/>
      <path class="cls-1" d="M10.88,31.93c0,.5-.39.92-.88.93-.48,0-.9-.41-.9-.91s.38-.89.85-.91c.49-.02.91.39.92.88"/>
      <path class="cls-1" d="M39.05,32.44c0-.5.39-.9.89-.89.49,0,.87.38.88.86.01.51-.37.91-.87.91-.51,0-.9-.38-.9-.88"/>
    </g>
  </g>
</svg>