<?xml version="1.0" encoding="UTF-8"?>
<svg id="Layer_2" data-name="Layer 2" xmlns="http://www.w3.org/2000/svg" viewBox="0 0 44.72 43.97">
  <defs>
    <style>
      .cls-1 {
        fill: #e9ba37;
      }
    </style>
  </defs>
  <g id="Layer_1-2" data-name="Layer 1">
    <g>
      <path class="cls-1" d="M35.57,42.44h4.41c-.85-.78-1.39-1.68-1.76-2.78-.72,1.11-1.56,2.01-2.65,2.78M25.81,27.41c-.14-.11-.28-.21-.41-.3-3.13-2.19-6.26-4.37-9.37-6.57-.3-.21-.48-.18-.76.02-2.23,1.58-4.47,3.14-6.7,4.7-2.15,1.5-4.29,3.01-6.45,4.5-.25.18-.35.32-.12.57.05.06.1.12.13.19.18.41.37.46.79.18,4.01-2.7,8.04-5.38,12.07-8.06.59-.39.75-.39,1.34,0,2.44,1.62,4.88,3.25,7.32,4.88.36.24.71.68,1.09.64.37-.04.7-.47,1.08-.75M13.42,37.07c0,1.67,0,3.35,0,5.02,0,.3.08.39.39.39,1.01-.02,2.02,0,3.02,0q1.07,0,1.07-1.09c0-3.04,0-6.08,0-9.12,0-1.12-.61-1.71-1.73-1.72-.34,0-.68,0-1.02,0-1.12,0-1.72.6-1.72,1.73,0,1.6,0,3.2,0,4.79M30.55,42.48c4.11-.01,7.48-3.39,7.46-7.47-.02-4.11-3.37-7.44-7.49-7.43-4.07,0-7.43,3.4-7.41,7.51.02,4.04,3.41,7.4,7.45,7.39M25.56,42.48c-.13-.12-.16-.15-.2-.18-4.16-3.15-4.96-8.44-1.91-12.69.23-.32.04-.39-.16-.52-2.44-1.63-4.88-3.25-7.31-4.89-.24-.16-.41-.16-.65,0-3.5,2.35-7.01,4.69-10.53,7.02-.23.15-.33.31-.33.6.01,3.42.01,6.83,0,10.25,0,.33.09.41.42.41,2.19-.01,4.38-.02,6.57,0,.38,0,.49-.08.49-.48-.02-3.32-.01-6.64,0-9.97,0-1.42.92-2.56,2.29-2.9.63-.15,1.27-.03,1.9-.08,1.9-.15,3.31,1.43,3.27,3.23-.07,3.26-.01,6.52-.03,9.78,0,.32.08.43.41.42.82-.02,1.65,0,2.47,0h3.31ZM8.95,23.16c2.02-1.42,3.95-2.77,5.88-4.12.81-.57.85-.57,1.68.01,3.51,2.45,7.01,4.91,10.51,7.37.25.18.46.21.76.11,3.6-1.2,7.56.03,9.87,3.04.1.13.2.25.34.42.01-.14.02-.2.02-.26,0-7.92.02-15.83,0-23.75,0-2.58-1.99-4.49-4.6-4.49-8.68,0-17.35,0-26.03,0-.11,0-.25-.07-.33.09,1.41,1.35,1.93,3.02,1.92,4.95-.04,5.34-.02,10.68-.02,16.02v.6ZM2.99,32.52c-.94.43-1.08.38-1.63-.45-.36-.54-.73-1.08-1.08-1.63-.42-.64-.37-.96.25-1.4,2.2-1.54,4.39-3.08,6.6-4.61.24-.17.34-.33.34-.64,0-5.88,0-11.77,0-17.65,0-2.62-1.78-4.49-4.39-4.66-.53-.03-.82-.3-.82-.75C2.25.28,2.56,0,3.12,0c10.21,0,20.43-.01,30.65,0,3.09,0,5.73,2.73,5.73,5.87,0,10.62,0,21.24,0,31.86,0,2.17,1.16,3.87,3.09,4.5.44.15.9.21,1.37.24.48.03.77.32.76.76,0,.43-.31.71-.79.73-.11,0-.22,0-.33,0H4.1c-.93,0-1.11-.18-1.11-1.11v-10.34Z"/>
      <path class="cls-1" d="M23.43,6.71h9.87c.98,0,.96,0,.99-.99.01-.4-.08-.52-.5-.51-6.71.02-13.41.01-20.12.01-1.01,0-.99,0-1.02,1.01,0,.38.08.49.48.49,3.43-.02,6.86-.01,10.29-.01M23.46,8.2h-11.27c-.78,0-1-.22-1-.99,0-.87,0-1.74,0-2.61,0-.61.26-.87.88-.87,7.61,0,15.21,0,22.82,0,.62,0,.88.26.88.87,0,.9,0,1.8,0,2.7,0,.64-.26.89-.91.89-3.8,0-7.61,0-11.41,0"/>
      <path class="cls-1" d="M23.44,11.18h-10.48c-.14,0-.28.01-.42-.01-.37-.06-.63-.38-.61-.76.02-.39.24-.63.62-.71.1-.02.22-.01.32-.01h21.19c.11,0,.22,0,.33,0,.38.05.64.36.64.74,0,.38-.26.69-.64.73-.14.02-.28,0-.42,0h-10.53"/>
      <path class="cls-1" d="M23.46,14.16h-10.39c-.12,0-.25,0-.37,0-.47-.02-.77-.32-.76-.76,0-.42.3-.71.74-.73.09,0,.19,0,.28,0h21.05c.12,0,.25,0,.37,0,.38.05.64.35.65.73,0,.38-.25.69-.63.75-.14.02-.28,0-.42,0h-10.53"/>
      <path class="cls-1" d="M23.47,17.14c-3.54,0-7.08,0-10.62,0-.6,0-.92-.26-.92-.74,0-.38.26-.69.64-.74.12-.02.25,0,.37,0h21.1c.12,0,.25-.01.37.01.38.08.6.32.61.71.02.38-.24.7-.61.76-.14.02-.28,0-.42,0h-10.53"/>
      <path class="cls-1" d="M29.05,20.12c-1.71,0-3.42,0-5.12,0-.65,0-1.02-.58-.72-1.11.15-.27.39-.38.7-.38,3.45,0,6.89,0,10.34,0,.48,0,.78.3.79.73,0,.45-.3.75-.81.75-1.72,0-3.45,0-5.17,0"/>
      <path class="cls-1" d="M8.22,35.03q.73,0,.73-.68t-.79-.81-.71.71.77.79M8.21,32.05c.48,0,.96,0,1.44,0,.5.01.77.28.78.79,0,.96,0,1.93,0,2.89,0,.5-.28.78-.78.79-.98.01-1.96.01-2.93,0-.47,0-.75-.29-.75-.76-.01-.98-.01-1.96,0-2.93,0-.49.29-.76.8-.76.48,0,.96,0,1.44,0"/>
      <path class="cls-1" d="M31.33,32.79c-.22,0-.43,0-.65,0-.51.02-.85.3-.86.73-.01.42.32.73.82.77,1.34.1,2.23,1.1,2.14,2.42-.06.8-.46,1.41-1.18,1.78-.25.13-.34.28-.31.54.02.17.01.34,0,.51-.03.43-.35.72-.76.71-.4-.01-.68-.29-.72-.71q-.06-.73-.77-.79c-.44-.03-.72-.33-.72-.75,0-.42.29-.72.74-.73.45-.01.9,0,1.35,0,.54,0,.89-.31.89-.75,0-.42-.33-.71-.85-.74-1.04-.07-1.85-.75-2.08-1.75-.23-.95.22-1.96,1.12-2.43.26-.14.36-.29.33-.57-.02-.17-.01-.34,0-.51.03-.41.34-.68.74-.68.4,0,.7.28.74.68,0,.03,0,.06,0,.09q.03.69.7.71c.48.02.78.3.79.73,0,.45-.3.74-.81.76-.22,0-.43,0-.65,0"/>
    </g>
  </g>
</svg>