<?xml version="1.0" encoding="UTF-8"?>
<svg id="Layer_2" data-name="Layer 2" xmlns="http://www.w3.org/2000/svg" viewBox="0 0 23.69 61.22">
  <defs>
    <style>
      .cls-1 {
        fill: #e9ba37;
      }

      .cls-2 {
        fill: #fff;
      }
    </style>
  </defs>
  <g id="Layer_1-2" data-name="Layer 1">
    <g>
      <path class="cls-1" d="M19.17,37.81c.51,0,1.02-.01,1.53,0,.25,0,.37-.04.36-.33-.02-.7-.01-1.4,0-2.1,0-.23-.07-.3-.3-.3-1.06.01-2.13,0-3.19,0-.19,0-.29.04-.29.26.01.73.01,1.46,0,2.19,0,.25.11.28.32.28.52-.01,1.05,0,1.57,0M4.52,37.81c.53,0,1.05-.01,1.57,0,.26,0,.32-.09.32-.33-.01-.7-.01-1.4,0-2.1,0-.22-.06-.31-.29-.3-1.06.01-2.13.01-3.19,0-.24,0-.29.09-.29.3.01.7.02,1.4,0,2.1,0,.29.11.33.36.33.51-.02,1.02,0,1.53,0M11.85,35.09c-.83,0-1.66,0-2.49,0-.2,0-.32.02-.32.28.02.73.01,1.46,0,2.19,0,.22.09.26.29.26,1.68,0,3.35,0,5.03,0,.23,0,.3-.07.3-.3-.01-.7-.02-1.4,0-2.1,0-.29-.11-.33-.36-.33-.82.01-1.63,0-2.45,0M15.09,54.58c0-1.15.02-2.31,0-3.46-.05-2.1-.97-3.68-2.84-4.7-.27-.15-.5-.16-.78-.02-1.82.97-2.81,2.49-2.85,4.54-.05,2.42,0,4.85-.02,7.27,0,.33.12.37.41.37,1.9-.01,3.8-.01,5.7,0,.35,0,.4-.12.4-.43-.02-1.2,0-2.39,0-3.59M4.24,32.47h.56c4.42,0,8.85,0,13.27,0,.43,0,1.09.19,1.25-.07.24-.38-.08-.94-.24-1.4-.68-1.96-1.94-3.44-3.79-4.39-1.07-.54-2.03-1.2-2.79-2.14-.23-.28-.43-.57-.67-.89-.89,1.47-2.2,2.38-3.65,3.16-2.25,1.21-3.51,3.17-3.93,5.73M11.83,40.44c-2.92,0-5.84,0-8.76,0-.29,0-.43.02-.43.39.01,5.8.01,11.6,0,17.4,0,.32.1.39.4.38.83-.02,1.66-.03,2.5,0,.38.01.45-.11.45-.47-.02-2.35-.03-4.7,0-7.05.04-3.46,1.97-6.19,5.2-7.42.47-.18.89-.17,1.35,0,3.28,1.28,5.18,4.04,5.19,7.57,0,2.32,0,4.64,0,6.97,0,.31.07.4.39.39.83-.02,1.66-.03,2.5,0,.36.01.46-.08.46-.45-.01-5.76-.01-11.51,0-17.27,0-.38-.11-.45-.47-.45-2.92.02-5.84,0-8.76,0M.98,61.22C.25,60.9,0,60.35,0,59.55c.02-8.52.01-17.03.01-25.55,0-.81.28-1.26.91-1.47.03,0,.06-.04.08-.03.61.1.61-.34.68-.75.61-3.32,2.38-5.83,5.37-7.41,1.26-.67,2.26-1.53,2.91-2.8.11-.22.12-.36-.03-.57-.82-1.13-1.02-2.37-.53-3.68.29-.78,1-1.13,1.71-.88.72.25,1.06.96.79,1.74-.18.54-.13,1.01.3,1.39.43.38.91.38,1.42.13.74-.35,1.5-.09,1.82.58.32.68.04,1.41-.69,1.8q-.59.31-.15.83c.45.53,1.01.92,1.63,1.23,2.95,1.48,4.86,3.8,5.64,7.02.08.34.13.69.18,1.03.03.19.08.29.32.3.82.04,1.31.57,1.31,1.39,0,8.65,0,17.29,0,25.94,0,.71-.38,1.12-.97,1.42H.98Z"/>
      <path class="cls-2" d="M9.17,4.73c-1.11,1.4-1.16,4.37.57,6.24,1.94,2.11,4.97,2.15,6.64.95-4.1-.7-6.51-3.1-7.21-7.19M5.74,6.49c.15-.32.14-.68.22-1.01C6.57,3.06,8.04,1.35,10.24.23c.58-.3,1.14-.35,1.67.1.47.41.56.96.28,1.68-1.13,2.98.45,6.18,3.5,7.06,1.15.33,2.28.26,3.39-.18.41-.16.81-.24,1.23-.05.69.32.97,1.07.63,1.81-1.1,2.37-2.93,3.92-5.48,4.5-4.48,1.02-8.76-1.82-9.61-6.31-.04-.2-.02-.41-.12-.59v-1.75Z"/>
    </g>
  </g>
</svg>