<?xml version="1.0" encoding="UTF-8"?>
<svg id="Layer_2" data-name="Layer 2" xmlns="http://www.w3.org/2000/svg" viewBox="0 0 55.15 56.89">
  <defs>
    <style>
      .cls-1 {
        fill: #e9ba37;
      }
    </style>
  </defs>
  <g id="Layer_1-2" data-name="Layer 1">
    <path class="cls-1" d="M21.18,17.4c-.48,0-.91.01-1.34,0-3.57-.14-7.15-.29-10.72-.43-.46-.02-.95-.17-1.49.3,2.38,3.76,4.74,7.5,7.09,11.23-.87,1.37-1.66,2.62-2.45,3.87-.77,1.21-1.56,2.42-2.31,3.65-.76,1.24-1.64,2.43-2.33,3.91,2.41.21,4.61-.09,6.82-.16,2.22-.07,4.43-.17,6.68-.26.26.48.5.89.72,1.31,1.64,3.13,3.27,6.26,4.92,9.38.21.39.32.91.96,1.06.24-.42.49-.83.71-1.25,1.52-2.89,3.02-5.8,4.56-8.69,1.12-2.11.46-1.86,3.17-1.75,3.36.14,6.71.29,10.07.43.36.01.72-.07,1.3-.12-2.37-3.99-4.85-7.66-7.15-11.42.87-1.36,1.67-2.6,2.46-3.85.77-1.21,1.56-2.42,2.31-3.65.76-1.25,1.66-2.41,2.36-3.99-4.65.05-9.07.39-13.54.47-.24-.42-.46-.79-.66-1.17-1.66-3.17-3.31-6.34-4.98-9.5-.21-.39-.32-.9-.99-1.08-2.05,3.9-4.09,7.79-6.16,11.72M27.56,53.41c-.36-.66-.6-1.06-.81-1.48-1.77-3.6-3.53-7.21-5.3-10.81-.64-1.3-.55-1.15-1.88-1.05-3.87.29-7.75.54-11.62.8-.59.04-1.19,0-1.99,0,.84-1.57,1.8-2.85,2.67-4.18.91-1.38,1.84-2.76,2.77-4.13.9-1.33,1.81-2.67,2.76-4.07-2.73-4.08-5.44-8.12-8.24-12.3.4-.08.63-.18.86-.17,4.18.28,8.35.58,12.53.87.13,0,.26,0,.39.03.87.18,1.33-.18,1.71-.99,1.76-3.7,3.59-7.37,5.39-11.05.19-.38.41-.74.72-1.32.97,1.57,1.61,3.08,2.34,4.53.73,1.44,1.42,2.9,2.13,4.35.73,1.48,1.46,2.96,2.22,4.51,4.94-.28,9.82-.76,15.02-.94-1.47,2.29-2.84,4.29-4.18,6.31-1.35,2.02-2.72,4.04-4.13,6.13,2.73,4.08,5.44,8.12,8.27,12.36-.61.04-.97.1-1.34.08-3.05-.19-6.09-.4-9.14-.61-1.22-.08-2.44-.13-3.65-.27-.7-.08-1.03.22-1.3.79-.82,1.74-1.67,3.46-2.51,5.18-.98,2-1.96,3.99-2.95,5.98-.19.39-.41.76-.77,1.43"/>
    <path class="cls-1" d="M46.17,28.57c.97.93,1.83,1.73,2.67,2.55,1.83,1.8,3.64,3.62,5.46,5.43.22.22.44.42.64.66.21.25.32.53.05.82-.26.28-.55.21-.81,0-.17-.14-.32-.3-.47-.45-2.71-2.89-5.43-5.78-8.14-8.67-.09-.09-.15-.21-.28-.4.18-.25.35-.54.57-.78,2.59-2.77,5.18-5.53,7.78-8.29.21-.22.42-.47.68-.58.18-.08.51.01.68.14.1.08.1.43.01.57-.21.32-.5.6-.77.88-2.31,2.3-4.63,4.6-6.94,6.91-.33.33-.65.68-1.14,1.2"/>
    <path class="cls-1" d="M9.82,28.53c-.24.28-.42.52-.63.74-2.53,2.7-5.06,5.4-7.6,8.09-.27.28-.55.56-.87.77-.13.08-.45.02-.57-.09-.12-.12-.2-.44-.12-.57.2-.33.47-.62.75-.89,2.34-2.34,4.69-4.67,7.03-7.01.33-.33.65-.68,1.04-1.09-.39-.41-.7-.76-1.03-1.09-2.31-2.3-4.63-4.6-6.94-6.91-.28-.28-.58-.54-.78-.88-.1-.17-.07-.56.06-.68.14-.12.47-.09.7-.04.15.03.27.21.39.34,2.77,2.95,5.54,5.9,8.31,8.86.08.09.13.22.26.44"/>
    <path class="cls-1" d="M18.22,44.55c-1.6.42-3.03.8-4.45,1.18-2.27.61-4.53,1.22-6.81,1.83-.25.07-.5.14-.76.18-.33.05-.69-.04-.68-.41,0-.23.25-.52.46-.67.2-.14.5-.14.75-.2,3.77-.89,7.54-1.77,11.31-2.65.17-.04.34-.06.62-.1.15.36.32.69.42,1.05,1.07,3.54,2.14,7.08,3.2,10.62.1.33.2.67.21,1.02,0,.17-.18.48-.3.49-.21.02-.55-.08-.64-.24-.21-.37-.32-.81-.43-1.23-.82-3.07-1.62-6.14-2.44-9.21-.13-.5-.29-.99-.48-1.65"/>
    <path class="cls-1" d="M36.41,43.72c.41.07.79.12,1.16.21,3.56.83,7.12,1.66,10.67,2.5.34.08.7.13.99.3.18.1.36.43.33.61-.04.17-.35.38-.56.39-.33.01-.68-.11-1.01-.2-3.4-.91-6.81-1.82-10.21-2.73-.24-.06-.5-.11-.89-.19-.17.53-.34,1.01-.47,1.49-.85,3.19-1.7,6.39-2.55,9.58-.1.37-.23.75-.43,1.08-.07.12-.39.16-.57.12-.12-.02-.27-.24-.28-.38-.02-.25.02-.52.1-.76,1.14-3.79,2.29-7.58,3.44-11.37.06-.2.17-.39.29-.65"/>
    <path class="cls-1" d="M18.69,13.24c-.48-.09-.86-.15-1.23-.23-3.56-.83-7.12-1.65-10.68-2.49-.34-.08-.7-.15-.98-.33-.16-.1-.26-.43-.24-.65.02-.14.31-.35.48-.34.39.02.77.13,1.15.23,3.24.87,6.47,1.75,9.71,2.62.41.11.83.19,1.35.3.18-.59.33-1.08.46-1.57.86-3.2,1.7-6.4,2.56-9.59.09-.33.19-.68.36-.97.09-.14.39-.26.54-.21.15.04.33.29.35.47.04.25-.03.52-.1.77-1.12,3.75-2.26,7.5-3.4,11.25-.06.2-.17.39-.32.74"/>
    <path class="cls-1" d="M36.85,12.35c.5-.1.92-.17,1.32-.27,3.2-.86,6.39-1.72,9.59-2.58.34-.09.67-.18,1.01-.27.39-.1.73-.02.82.4.1.43-.22.61-.59.71-.17.04-.33.11-.5.15-3.73.88-7.46,1.75-11.19,2.61-.29.07-.59.05-.93.07-.14-.36-.29-.67-.39-1-1.07-3.54-2.14-7.09-3.2-10.63-.11-.37-.17-.76-.19-1.15,0-.12.18-.35.3-.36.18-.02.48.03.56.16.18.29.29.63.38.96.86,3.19,1.71,6.39,2.56,9.59.13.5.28.99.45,1.61"/>
    <path class="cls-1" d="M27.56,15.16c-.46.56-.78.91-1.07,1.29-.91,1.17-1.85,2.32-2.71,3.53-.44.62-.98.94-1.73,1.01-.91.09-1.82.21-2.73.34-1.06.15-2.12.33-3.31.52.2.58.32.99.48,1.39.55,1.38,1.08,2.76,1.68,4.11.34.76.39,1.43.03,2.23-.66,1.42-1.21,2.9-1.79,4.36-.14.35-.21.72-.34,1.14.41.1.7.2.99.24,1.68.25,3.36.53,5.05.7.73.07,1.19.37,1.61.93,1.02,1.36,2.07,2.7,3.13,4.03.2.25.47.45.77.72.36-.43.66-.75.92-1.09.97-1.24,1.95-2.47,2.88-3.73.4-.53.84-.79,1.51-.87,1.73-.19,3.46-.46,5.18-.72.28-.04.56-.16.92-.27-.14-.44-.23-.82-.37-1.17-.51-1.3-1-2.61-1.59-3.87-.48-1.01-.52-1.92-.02-2.96.65-1.33,1.15-2.73,1.7-4.11.12-.3.16-.64.26-1.03-.47-.11-.84-.23-1.22-.29-1.51-.21-3.02-.42-4.54-.59-.83-.09-1.46-.37-1.96-1.09-.79-1.15-1.69-2.22-2.55-3.32-.34-.44-.7-.86-1.18-1.44M14.85,21.17c1.48-.18,2.73-.35,3.98-.49.91-.11,1.82-.26,2.73-.26.95,0,1.5-.43,2.01-1.17,1.02-1.52,2.14-2.98,3.22-4.45.2-.28.44-.53.73-.87.27.29.53.51.72.77,1.14,1.55,2.29,3.08,3.38,4.66.46.67.96,1,1.8,1.06,1.78.1,3.56.34,5.34.53.43.05.85.16,1.4.26-.1.38-.15.71-.28,1-.75,1.72-1.48,3.44-2.29,5.13-.37.77-.42,1.42-.03,2.21.76,1.52,1.41,3.1,2.1,4.65.19.43.35.88.59,1.46-.4.11-.71.24-1.03.27-1.91.21-3.81.42-5.73.57-.8.07-1.37.35-1.84,1.04-1.03,1.51-2.13,2.98-3.22,4.46-.25.34-.53.65-.88,1.08-.35-.43-.63-.75-.88-1.09-1.08-1.48-2.19-2.94-3.21-4.46-.47-.69-1.05-.96-1.84-1.03-1.91-.16-3.82-.37-5.73-.57-.29-.03-.57-.13-1-.24.19-.52.33-.96.52-1.39.66-1.52,1.3-3.05,2.04-4.53.45-.9.5-1.65.03-2.57-.78-1.51-1.41-3.09-2.1-4.65-.17-.39-.3-.8-.52-1.4"/>
    <path class="cls-1" d="M27.54,33.83c1.26-1.42,2.8-2.23,4.64-2.76-.56-1.79-.38-3.5-.07-5.32-1.93-.24-3.24-1.41-4.66-2.55-1.21,1.48-2.83,2.11-4.54,2.73.6,1.76.4,3.43.07,5.18,1.79.45,3.25,1.26,4.56,2.71M33.45,25.13c-.2,1.2-.5,2.26-.51,3.33,0,1.07.3,2.14.48,3.24-.95.74-2.18.74-3.11,1.33-.95.6-1.76,1.4-2.75,2.21-.9-.74-1.72-1.6-2.71-2.17-.95-.55-2.07-.82-3.25-1.25.64-2.22.72-4.36.02-6.49,1-.77,2.22-.8,3.15-1.38.95-.58,1.76-1.39,2.65-2.12,1.14.43,1.75,1.51,2.73,2.02.99.52,2.09.82,3.3,1.27"/>
  </g>
</svg>