<?xml version="1.0" encoding="UTF-8"?>
<svg id="Layer_2" data-name="Layer 2" xmlns="http://www.w3.org/2000/svg" viewBox="0 0 85.02 110.14">
  <defs>
    <style>
      .cls-1 {
        fill: #e9ba37;
      }
    </style>
  </defs>
  <g id="Layer_1-2" data-name="Layer 1">
    <g>
      <path class="cls-1" d="M4.13,76.85c.13.24.26.48.38.72,8.53-.34,17.06-.68,25.62-1.02,4.22,7.61,7.84,15.35,12.39,23.19,1.79-2.81,2.98-5.37,4.31-7.85,1.35-2.52,2.66-5.06,3.98-7.6,1.32-2.53,2.63-5.06,3.98-7.65,1.04,0,1.96-.03,2.87,0,6.72.28,13.44.59,20.17.86.95.04,1.97.32,3.1-.51-4.46-7.41-9.19-14.53-13.73-21.85,1.2-1.89,2.33-3.66,3.45-5.43,1.17-1.85,2.35-3.69,3.52-5.54,1.13-1.77,2.29-3.53,3.36-5.34,1.09-1.84,2.52-3.51,3.28-5.81-.92-.06-1.57-.17-2.22-.14-7.06.25-14.12.45-21.17.85-1.88.11-2.88-.37-3.73-2.07-3.09-6.16-6.35-12.24-9.56-18.35-.41-.79-.89-1.54-1.59-2.75-.7,1.19-1.19,1.94-1.6,2.72-3.21,6.1-6.46,12.19-9.56,18.35-.85,1.68-1.82,2.2-3.71,2.1-7.05-.4-14.12-.6-21.18-.84-.69-.02-1.39.12-2.57.24,4.82,7.63,9.37,14.84,13.91,22.04-4.66,7.36-9.18,14.52-13.7,21.68M84.22,79.15c-.8.09-1.19.2-1.58.17-8.14-.57-16.28-1.14-24.42-1.72-.33-.02-.67-.03-1.01-.09-1.23-.2-2.14.15-2.58,1.41-.17.48-.43.91-.65,1.37-3.33,6.8-6.67,13.6-10,20.39-.37.75-.78,1.46-1.23,2.29-1.09-.5-1.28-1.47-1.67-2.25-3.35-6.79-6.68-13.59-10.01-20.38-.3-.61-.62-1.2-.89-1.81-.35-.82-.96-1.12-1.81-1.03-.67.07-1.34.12-2.01.17-8.06.56-16.11,1.12-24.17,1.66-.31.02-.63-.09-1.28-.18,1.57-2.99,3.5-5.51,5.23-8.14,1.7-2.61,3.46-5.17,5.2-7.76,1.78-2.64,3.56-5.29,5.42-8.06-5.28-7.89-10.5-15.68-15.96-23.83,1.01-.11,1.62-.26,2.23-.23,6.71.41,13.43.86,20.14,1.3,1.6.1,3.2.15,4.78.33,1.29.15,2-.38,2.54-1.52,1.57-3.35,3.21-6.67,4.84-10,2-4.08,4.01-8.15,6.04-12.21.25-.51.61-.98.97-1.55,1.06.44,1.26,1.41,1.64,2.2,3.35,6.79,6.68,13.59,10.02,20.38.41.83.83,1.65,1.38,2.76,9.4-.61,18.85-1.22,28.8-1.87-1.21,2.57-2.65,4.4-3.91,6.33-1.34,2.04-2.7,4.06-4.06,6.09-1.31,1.96-2.63,3.9-3.95,5.86-1.31,1.94-2.62,3.88-4,5.92,1.86,2.76,3.64,5.4,5.42,8.05,1.74,2.58,3.48,5.16,5.2,7.76,1.74,2.63,3.59,5.2,5.34,8.19"/>
      <path class="cls-1" d="M59.61,84.77c.6.06,1.18.06,1.73.19,7.11,1.65,14.23,3.31,21.34,4.97.57.14,1.19.23,1.67.54.35.23.77.97.65,1.15-.27.4-.84.81-1.3.82-.73,0-1.47-.31-2.19-.51-5.84-1.58-11.67-3.18-17.5-4.76-1.04-.28-2.1-.5-3.42-.81-.35,1.06-.7,1.97-.95,2.91-1.65,6.16-3.28,12.33-4.93,18.5-.19.72-.43,1.46-.79,2.1-.14.24-.74.33-1.09.27-.23-.03-.54-.44-.57-.71-.05-.49.01-1.01.15-1.49,2.23-7.4,4.47-14.79,6.73-22.17.09-.31.28-.59.48-.98"/>
      <path class="cls-1" d="M25.42,84.67c.3.7.58,1.21.74,1.76,2.11,6.99,4.22,13.99,6.31,20.99.19.63.3,1.31.33,1.97,0,.25-.31.69-.54.73-.36.07-.96-.01-1.1-.24-.37-.64-.62-1.37-.81-2.09-1.64-6.08-3.24-12.17-4.87-18.25-.26-.96-.56-1.91-.91-3.1-.85.16-1.57.24-2.26.43-6.33,1.7-12.65,3.41-18.97,5.12-.65.17-1.31.48-1.95.45-.47-.02-.93-.48-1.39-.74.29-.45.49-1.04.9-1.31.46-.31,1.1-.36,1.68-.5,6.87-1.6,13.74-3.19,20.61-4.78.72-.16,1.44-.27,2.24-.42"/>
      <path class="cls-1" d="M59.54,25.6c-.3-.82-.56-1.43-.75-2.06-2.07-6.84-4.14-13.67-6.18-20.52-.21-.71-.32-1.46-.36-2.21-.01-.24.35-.68.58-.71.35-.04.92.08,1.07.33.35.55.55,1.22.72,1.86,1.68,6.25,3.33,12.5,5,18.76.24.89.53,1.75.88,2.92,1.04-.23,1.99-.41,2.93-.66,6.17-1.65,12.33-3.33,18.5-4.98.72-.19,1.48-.33,2.22-.33.3,0,.78.43.84.73.06.31-.19.83-.47,1.04-.39.29-.92.41-1.4.52-7.2,1.7-14.39,3.39-21.59,5.06-.56.13-1.15.15-1.99.26"/>
      <path class="cls-1" d="M25.47,25.67c-1.35-.27-2.49-.48-3.62-.75-6.38-1.49-12.76-2.99-19.14-4.48-.49-.12-.98-.22-1.47-.36-.67-.19-1.38-.47-1.22-1.32.2-1.05,1.07-.87,1.82-.75.5.08.98.23,1.47.37,6.09,1.64,12.17,3.28,18.25,4.91.88.24,1.78.41,2.95.68.32-1.04.65-1.96.9-2.89,1.58-5.93,3.14-11.86,4.71-17.79.17-.65.31-1.31.54-1.94.26-.7.54-1.6,1.53-1.27.94.32.7,1.21.57,1.96-.04.24-.14.48-.21.72-2.13,7.08-4.26,14.16-6.4,21.24-.14.47-.36.92-.67,1.68"/>
      <path class="cls-1" d="M42.61,80.93c.56-.69.99-1.19,1.39-1.7,2.02-2.59,4.06-5.16,6.02-7.79.71-.94,1.52-1.48,2.69-1.61,2.09-.23,4.18-.46,6.24-.84,1.86-.35,3.86-.17,5.75-1.22-.32-.93-.57-1.8-.91-2.64-1.13-2.81-2.25-5.62-3.46-8.39-.47-1.09-.48-2.04,0-3.12,1.29-3.01,2.51-6.06,3.72-9.1.26-.66.38-1.38.6-2.14-.56-.17-.87-.3-1.19-.35-3.41-.49-6.82-1.05-10.24-1.42-1.47-.16-2.48-.73-3.34-1.9-1.79-2.44-3.68-4.81-5.55-7.19-.5-.64-1.07-1.22-1.79-2.02-.71.8-1.29,1.38-1.79,2.02-1.92,2.45-3.84,4.89-5.7,7.39-.76,1.02-1.64,1.58-2.93,1.67-1.59.11-3.19.29-4.76.6-2.27.44-4.66.31-7,1.37.33.97.58,1.85.92,2.69,1.1,2.73,2.18,5.47,3.37,8.16.56,1.26.56,2.34,0,3.6-1.1,2.45-2.07,4.96-3.08,7.46-.43,1.07-.81,2.17-1.32,3.51,1.02.24,1.81.48,2.6.59,2.83.4,5.66.8,8.5,1.12,1.76.2,3.11.81,4.17,2.38,1.6,2.37,3.45,4.56,5.23,6.8.5.64,1.08,1.22,1.87,2.1M42.54,83.49c-.74-.92-1.28-1.54-1.76-2.2-2.04-2.78-4.12-5.54-6.05-8.38-.94-1.37-1.99-2.02-3.7-2.12-3.52-.21-7.02-.66-10.53-1.04-.73-.08-1.45-.31-2.4-.53.35-.95.58-1.73.91-2.48,1.46-3.31,2.91-6.62,4.44-9.89.55-1.17.55-2.17,0-3.35-1.53-3.27-2.98-6.58-4.44-9.89-.33-.74-.57-1.53-.99-2.65,1.93-.25,3.55-.48,5.18-.65,2.76-.3,5.51-.65,8.28-.84,1.4-.09,2.29-.71,3.07-1.83,2.01-2.9,4.11-5.74,6.2-8.59.48-.66,1.04-1.27,1.73-2.11.67.78,1.24,1.37,1.71,2.02,2.14,2.92,4.28,5.83,6.35,8.79.73,1.05,1.57,1.59,2.87,1.7,3.93.36,7.86.83,11.78,1.28.48.05.96.19,1.65.33-.22.75-.34,1.39-.6,1.97-1.51,3.46-3.02,6.94-4.62,10.36-.59,1.26-.59,2.33,0,3.58,1.51,3.19,2.92,6.43,4.34,9.66.34.75.6,1.54,1,2.58-.99.22-1.77.46-2.56.55-3.59.39-7.18.8-10.79,1.07-1.4.1-2.31.67-3.1,1.79-2.02,2.89-4.12,5.73-6.2,8.59-.49.67-1.02,1.31-1.8,2.29"/>
      <path class="cls-1" d="M33.66,60.33c3.53.85,6.33,2.6,8.9,5.14,2.49-2.66,5.4-4.22,8.77-5.17-.27-1.89-.7-3.54-.7-5.18s.42-3.29.69-5.15c-3.45-.88-6.29-2.55-8.83-5.13-2.48,2.68-5.41,4.21-8.86,5.2.95,3.49.87,6.79.03,10.29M30.96,48.49c4.65-1.11,8.33-3.18,11.45-6.56,1.86,1.54,3.38,3.16,5.23,4.23,1.85,1.07,4.02,1.59,6.25,2.42-.37,2.28-.99,4.42-1,6.55,0,2.07.61,4.14.98,6.29-1.79,1.45-4.16,1.46-5.97,2.58-1.84,1.14-3.41,2.71-5.16,4.14-2.21-.89-3.42-3.05-5.4-4.06-1.91-.97-4.03-1.54-6.3-2.38,1.29-4.4,1.36-8.62-.07-13.2"/>
    </g>
  </g>
</svg>